<?xml version="1.0" encoding="UTF-8" standalone="no"?>
<!DOCTYPE svg PUBLIC "-//W3C//DTD SVG 1.0//EN"
 "http://www.w3.org/TR/2001/REC-SVG-20010904/DTD/svg10.dtd" [
 <!ATTLIST svg xmlns:xlink CDATA #FIXED "http://www.w3.org/1999/xlink">
]>
<!-- Generated by Graphviz version 2.20.2 (Tue Mar &#160;2 21:46:26 UTC 2010)
     For user: (jablan) Mladen Jablanovic,,, -->
<!-- Title: G Pages: 1 -->
<svg width="366pt" height="404pt"
 viewBox="0.00 0.00 366.00 404.00" xmlns="http://www.w3.org/2000/svg" xmlns:xlink="http://www.w3.org/1999/xlink">
<g id="graph0" class="graph" transform="scale(1 1) rotate(0) translate(4 400)">
<title>G</title>
<polygon style="fill:white;stroke:white;" points="-4,4 -4,-400 362,-400 362,4 -4,4"/>
<!-- b1 -->
<g id="node1" class="node"><title>b1</title>
<polygon style="fill:#ffffff;stroke:black;" points="244,-396 80,-396 80,-360 244,-360 244,-396"/>
<text text-anchor="middle" x="162" y="-373.9" style="font-family:Times New Roman;font-size:14.00;">echo These processes</text>
</g>
<!-- b2 -->
<g id="node3" class="node"><title>b2</title>
<polygon style="fill:#ffffff;stroke:black;" points="270,-324 54,-324 54,-288 270,-288 270,-324"/>
<text text-anchor="middle" x="162" y="-301.9" style="font-family:Times New Roman;font-size:14.00;">echo will be ran sequentially.</text>
</g>
<!-- b1&#45;&gt;b2 -->
<g id="edge2" class="edge"><title>b1&#45;&gt;b2</title>
<path style="fill:none;stroke:black;" d="M162,-360C162,-352 162,-343 162,-334"/>
<polygon style="fill:black;stroke:black;" points="165.5,-334 162,-324 158.5,-334 165.5,-334"/>
</g>
<!-- b3 -->
<g id="node5" class="node"><title>b3</title>
<polygon style="fill:#ffffff;stroke:black;" points="122,-180 4.50057e-14,-180 9.76649e-15,-144 122,-144 122,-180"/>
<text text-anchor="middle" x="61" y="-157.9" style="font-family:Times New Roman;font-size:14.00;">echo And these</text>
</g>
<!-- b2&#45;&gt;b3 -->
<g id="edge4" class="edge"><title>b2&#45;&gt;b3</title>
<path style="fill:none;stroke:black;" d="M136,-288C123,-278 109,-266 99,-252 86,-233 76,-208 69,-190"/>
<polygon style="fill:black;stroke:black;" points="72.2259,-188.573 66,-180 65.5212,-190.584 72.2259,-188.573"/>
</g>
<!-- b4 -->
<g id="node7" class="node"><title>b4</title>
<polygon style="fill:#ffffff;stroke:black;" points="216,-252 108,-252 108,-216 216,-216 216,-252"/>
<text text-anchor="middle" x="162" y="-229.9" style="font-family:Times New Roman;font-size:14.00;">echo (but not</text>
</g>
<!-- b2&#45;&gt;b4 -->
<g id="edge6" class="edge"><title>b2&#45;&gt;b4</title>
<path style="fill:none;stroke:black;" d="M162,-288C162,-280 162,-271 162,-262"/>
<polygon style="fill:black;stroke:black;" points="165.5,-262 162,-252 158.5,-262 165.5,-262"/>
</g>
<!-- b6 -->
<g id="node11" class="node"><title>b6</title>
<polygon style="fill:#ffffff;stroke:black;" points="358,-252 234,-252 234,-216 358,-216 358,-252"/>
<text text-anchor="middle" x="296" y="-229.9" style="font-family:Times New Roman;font-size:14.00;">echo in parallel.</text>
</g>
<!-- b2&#45;&gt;b6 -->
<g id="edge10" class="edge"><title>b2&#45;&gt;b6</title>
<path style="fill:none;stroke:black;" d="M196,-288C214,-279 236,-267 254,-257"/>
<polygon style="fill:black;stroke:black;" points="255.958,-259.916 263,-252 252.559,-253.797 255.958,-259.916"/>
</g>
<!-- b7 -->
<g id="node13" class="node"><title>b7</title>
<polygon style="fill:#ffffff;stroke:black;" points="294,-108 114,-108 114,-72 294,-72 294,-108"/>
<text text-anchor="middle" x="204" y="-85.9" style="font-family:Times New Roman;font-size:14.00;">echo These will execute</text>
</g>
<!-- b3&#45;&gt;b7 -->
<g id="edge12" class="edge"><title>b3&#45;&gt;b7</title>
<path style="fill:none;stroke:black;" d="M97,-144C116,-134 139,-123 159,-113"/>
<polygon style="fill:black;stroke:black;" points="160.958,-115.916 168,-108 157.559,-109.797 160.958,-115.916"/>
</g>
<!-- b5 -->
<g id="node9" class="node"><title>b5</title>
<polygon style="fill:#ffffff;stroke:black;" points="268,-180 140,-180 140,-144 268,-144 268,-180"/>
<text text-anchor="middle" x="204" y="-157.9" style="font-family:Times New Roman;font-size:14.00;">echo these two)</text>
</g>
<!-- b4&#45;&gt;b5 -->
<g id="edge8" class="edge"><title>b4&#45;&gt;b5</title>
<path style="fill:none;stroke:black;" d="M173,-216C178,-208 183,-198 189,-189"/>
<polygon style="fill:black;stroke:black;" points="192.203,-190.441 194,-180 186.084,-187.042 192.203,-190.441"/>
</g>
<!-- b5&#45;&gt;b7 -->
<g id="edge14" class="edge"><title>b5&#45;&gt;b7</title>
<path style="fill:none;stroke:black;" d="M204,-144C204,-136 204,-127 204,-118"/>
<polygon style="fill:black;stroke:black;" points="207.5,-118 204,-108 200.5,-118 207.5,-118"/>
</g>
<!-- b6&#45;&gt;b7 -->
<g id="edge16" class="edge"><title>b6&#45;&gt;b7</title>
<path style="fill:none;stroke:black;" d="M296,-216C295,-197 291,-166 277,-144 269,-132 258,-122 247,-114"/>
<polygon style="fill:black;stroke:black;" points="249.1,-111.2 239,-108 244.9,-116.8 249.1,-111.2"/>
</g>
<!-- b8 -->
<g id="node17" class="node"><title>b8</title>
<polygon style="fill:#ffffff;stroke:black;" points="324,-36 84,-36 84,-1.06581e-14 324,-0 324,-36"/>
<text text-anchor="middle" x="204" y="-13.9" style="font-family:Times New Roman;font-size:14.00;">echo after all above are finished.</text>
</g>
<!-- b7&#45;&gt;b8 -->
<g id="edge18" class="edge"><title>b7&#45;&gt;b8</title>
<path style="fill:none;stroke:black;" d="M204,-72C204,-64 204,-55 204,-46"/>
<polygon style="fill:black;stroke:black;" points="207.5,-46 204,-36 200.5,-46 207.5,-46"/>
</g>
</g>
</svg>
